<mxfile host="65bd71144e">
    <diagram id="_XczguW3ghkH6YOHmOJZ" name="第 1 页">
        <mxGraphModel dx="3129" dy="3594" grid="1" gridSize="10" guides="1" tooltips="1" connect="1" arrows="1" fold="1" page="0" pageScale="1" pageWidth="827" pageHeight="1169" math="0" shadow="0">
            <root>
                <mxCell id="0"/>
                <mxCell id="1" parent="0"/>
                <mxCell id="7" value="" style="group;strokeColor=none;fillColor=none;" vertex="1" connectable="0" parent="1">
                    <mxGeometry x="-4" y="421" width="300" height="300" as="geometry"/>
                </mxCell>
                <mxCell id="3" value="" style="rhombus;whiteSpace=wrap;html=1;strokeColor=#5EE4FF;fillColor=none;" vertex="1" parent="7">
                    <mxGeometry x="78.18181818181817" width="145.45454545454544" height="143.71257485029943" as="geometry"/>
                </mxCell>
                <mxCell id="4" value="" style="rhombus;whiteSpace=wrap;html=1;strokeColor=#5EE4FF;fillColor=none;" vertex="1" parent="7">
                    <mxGeometry y="77.24550898203594" width="145.45454545454544" height="143.71257485029943" as="geometry"/>
                </mxCell>
                <mxCell id="5" value="" style="rhombus;whiteSpace=wrap;html=1;strokeColor=#5EE4FF;fillColor=none;" vertex="1" parent="7">
                    <mxGeometry x="154.54545454545453" y="77.24550898203594" width="145.45454545454544" height="143.71257485029943" as="geometry"/>
                </mxCell>
                <mxCell id="6" value="" style="rhombus;whiteSpace=wrap;html=1;strokeColor=#5EE4FF;fillColor=none;" vertex="1" parent="7">
                    <mxGeometry x="78.18181818181817" y="156.28742514970062" width="145.45454545454544" height="143.71257485029943" as="geometry"/>
                </mxCell>
                <mxCell id="8" value="&lt;h1&gt;&lt;font color=&quot;#ff8000&quot; style=&quot;font-size: 20px;&quot;&gt;Role Based Access Control - RBAC&lt;/font&gt;&lt;/h1&gt;&lt;p&gt;目前默认的鉴权模式，通过定义 role/clusterrole.然后用 RoleBinding/ClusterRoleBinding 把他们赋予 user 或 group&lt;/p&gt;" style="text;html=1;strokeColor=none;fillColor=none;spacing=5;spacingTop=-20;whiteSpace=wrap;overflow=hidden;rounded=0;" vertex="1" parent="1">
                    <mxGeometry x="-31" y="295" width="427.5" height="87" as="geometry"/>
                </mxCell>
                <mxCell id="14" value="&lt;h1&gt;&lt;span style=&quot;font-size: 20px;&quot;&gt;&lt;font color=&quot;#ff8000&quot;&gt;Attribute Based Access Control - ABAC&lt;/font&gt;&lt;/span&gt;&lt;/h1&gt;&lt;p&gt;根据各种属性 （user，group，目标 resource 或其他属性）来决定一个 request 是否能做某件事&lt;/p&gt;" style="text;html=1;strokeColor=none;fillColor=none;spacing=5;spacingTop=-20;whiteSpace=wrap;overflow=hidden;rounded=0;" vertex="1" parent="1">
                    <mxGeometry x="-417" y="527.5" width="389" height="87" as="geometry"/>
                </mxCell>
                <mxCell id="15" value="&lt;h1&gt;&lt;span style=&quot;font-size: 20px;&quot;&gt;&lt;font color=&quot;#ff8000&quot;&gt;Webhook&lt;/font&gt;&lt;/span&gt;&lt;/h1&gt;&lt;p&gt;API Server 把鉴权的工作交给一个 web 服务，server 向该服务发送 SubjectAccessReview 对象，该服务做出判断把结果附加在 SAR 上返回&lt;/p&gt;" style="text;html=1;strokeColor=none;fillColor=none;spacing=5;spacingTop=-20;whiteSpace=wrap;overflow=hidden;rounded=0;" vertex="1" parent="1">
                    <mxGeometry x="342" y="518.5" width="354" height="105" as="geometry"/>
                </mxCell>
                <mxCell id="16" value="&lt;h1&gt;&lt;span style=&quot;font-size: 20px;&quot;&gt;&lt;font color=&quot;#ff8000&quot;&gt;Node&lt;/font&gt;&lt;/span&gt;&lt;/h1&gt;&lt;p&gt;主要对 Kubeket 过来的请求进行鉴权&lt;/p&gt;" style="text;html=1;strokeColor=none;fillColor=none;spacing=5;spacingTop=-20;whiteSpace=wrap;overflow=hidden;rounded=0;" vertex="1" parent="1">
                    <mxGeometry x="-22" y="752" width="354" height="87" as="geometry"/>
                </mxCell>
                <mxCell id="18" value="鉴权模式" style="text;strokeColor=none;fillColor=none;html=1;align=center;verticalAlign=middle;whiteSpace=wrap;rounded=0;fontSize=40;fontColor=#000000;" vertex="1" parent="1">
                    <mxGeometry x="-417" y="50" width="190" height="102" as="geometry"/>
                </mxCell>
                <mxCell id="19" value="" style="edgeStyle=none;orthogonalLoop=1;jettySize=auto;html=1;rounded=0;fontSize=40;fontColor=#000000;endArrow=open;sourcePerimeterSpacing=8;targetPerimeterSpacing=8;curved=1;shape=link;" edge="1" parent="1">
                    <mxGeometry width="140" relative="1" as="geometry">
                        <mxPoint x="-417" y="170" as="sourcePoint"/>
                        <mxPoint x="1000" y="170" as="targetPoint"/>
                        <Array as="points"/>
                    </mxGeometry>
                </mxCell>
            </root>
        </mxGraphModel>
    </diagram>
</mxfile>